
<svg width="375px" height="329px" viewBox="0 0 375 329" version="1.1" xmlns="http://www.w3.org/2000/svg" xmlns:xlink="http://www.w3.org/1999/xlink">
    <!-- Generator: Sketch 50.2 (55047) - http://www.bohemiancoding.com/sketch -->
    <desc>Created with Sketch.</desc>
    <defs>
        <rect id="path-1" x="0" y="0" width="375" height="329"></rect>
        <linearGradient x1="100%" y1="103.444187%" x2="0%" y2="50%" id="linearGradient-3">
            <stop stop-color="#F96297" offset="0%"></stop>
            <stop stop-color="#F4B5A5" offset="100%"></stop>
        </linearGradient>
        <linearGradient x1="-2.22044605e-14%" y1="50%" x2="97.9407514%" y2="50%" id="linearGradient-4">
            <stop stop-color="#EFF4FD" offset="0%"></stop>
            <stop stop-color="#BCD1FC" offset="100%"></stop>
        </linearGradient>
        <linearGradient x1="-2.22044605e-14%" y1="50%" x2="100%" y2="50%" id="linearGradient-5">
            <stop stop-color="#EFF4FD" offset="0%"></stop>
            <stop stop-color="#BCD1FC" offset="97.9407514%"></stop>
        </linearGradient>
    </defs>
    <g id="Page-1" stroke="none" stroke-width="1" fill="none" fill-rule="evenodd">
        <g id="03-00-00-Signin-v3" transform="translate(0.000000, -483.000000)">
            <g id="bg" transform="translate(0.000000, 483.000000)">
                <mask id="mask-2" fill="white">
                    <use xlink:href="#path-1"></use>
                </mask>
                <g id="Mask"></g>
                <path d="M0,113.176648 C24.3858892,89.1921252 57.6749734,75.3138491 99.8672526,71.5418202 C163.155671,65.8837769 166.632602,87.2384376 227.611331,87.2384376 C288.59006,87.2384376 312.223471,45.7615419 334.461419,26.682036 C349.286717,13.9623654 362.799577,5.1347188 375,0.199096291 L375,359 L0,359 L0,113.176648 Z" id="Path-2" fill="url(#linearGradient-3)" mask="url(#mask-2)"></path>
                <circle id="Oval" fill="url(#linearGradient-4)" opacity="0.5" mask="url(#mask-2)" cx="115" cy="320" r="83"></circle>
                <circle id="Oval-Copy" fill="url(#linearGradient-4)" mask="url(#mask-2)" cx="218" cy="81" r="30"></circle>
                <circle id="Oval-Copy-2" fill="url(#linearGradient-5)" mask="url(#mask-2)" cx="357" cy="164" r="43"></circle>
            </g>
        </g>
    </g>
</svg>